<svg width="36" height="36" viewBox="0 0 36 36" fill="none" xmlns="http://www.w3.org/2000/svg">
<path d="M26.0447 22.9197H24.3988L23.8155 22.3572C25.1175 20.8446 26.069 19.0629 26.6021 17.1397C27.1351 15.2164 27.2364 13.1992 26.8988 11.2322C25.9197 5.4405 21.0863 0.815499 15.253 0.107166C13.2022 -0.15228 11.1192 0.0608568 9.16347 0.730268C7.20771 1.39968 5.43101 2.50762 3.96932 3.96931C2.50762 5.43101 1.39968 7.20771 0.730268 9.16347C0.0608568 11.1192 -0.15228 13.2022 0.107166 15.253C0.815499 21.0863 5.4405 25.9197 11.2322 26.8988C13.1992 27.2364 15.2164 27.1351 17.1397 26.6021C19.0629 26.069 20.8446 25.1175 22.3572 23.8155L22.9197 24.3988V26.0447L31.7738 34.8988C32.628 35.753 34.0238 35.753 34.878 34.8988C35.7322 34.0447 35.7322 32.6488 34.878 31.7947L26.0447 22.9197ZM13.5447 22.9197C8.35717 22.9197 4.16967 18.7322 4.16967 13.5447C4.16967 8.35717 8.35717 4.16967 13.5447 4.16967C18.7322 4.16967 22.9197 8.35717 22.9197 13.5447C22.9197 18.7322 18.7322 22.9197 13.5447 22.9197Z" fill="#1E1E1E"/>
</svg>
